<svg xmlns="http://www.w3.org/2000/svg" viewBox="0 0 64 64" width="64" height="64">
  <rect width="64" height="64" rx="14" fill="hsl(25, 95%, 53%)"/>
  <!-- Gamepad2 icon (lucide) centered and scaled -->
  <g transform="translate(12, 14)" stroke="#000" stroke-width="2.5" stroke-linecap="round" stroke-linejoin="round" fill="none">
    <!-- Controller body -->
    <line x1="12" y1="8" x2="28" y2="8"/>
    <path d="M6 8 C2 8 0 12 0 18 L2 30 C3 34 7 36 10 34 L14 30 H26 L30 34 C33 36 37 34 38 30 L40 18 C40 12 38 8 34 8"/>
    <!-- D-pad left/right -->
    <line x1="8" y1="19" x2="14" y2="19"/>
    <!-- D-pad up/down -->
    <line x1="11" y1="16" x2="11" y2="22"/>
    <!-- Right buttons (circles) -->
    <circle cx="29" cy="17" r="1.5" fill="#000"/>
    <circle cx="34" cy="19" r="1.5" fill="#000"/>
  </g>
</svg>
